# xmcd CD database file
#
# Track frame offsets:
#	150
#	3871
#	11559
#	22536
#	32884
#	38517
#	47895
#	50159
#	58265
#	66105
#	79126
#	86218
#	101623
#	113691
#	124541
#	139051
#	146745
#	157508
#	168371
#	178177
#	186393
#
# Disc length: 2724 seconds
#
# Revision: 2
# Processed by: cddbd v1.5.2PL0 Copyright (c) Steve Scherf et al.
# Submitted via: CDex 1.51
#
DISCID=120aa215
DTITLE=Sadies - In Concert - Volume 1 [CD1]
DYEAR=2006
DGENRE=Rock
TTITLE0=Introduction
TTITLE1=Cheat
TTITLE2=Why Be So Curious (PT. III)
TTITLE3=1,000 Cities Falling Apart (PT. II)
TTITLE4=Rat Creek
TTITLE5=Song Of The Chief Musician (PT. I)
TTITLE6=16 Mile Creek
TTITLE7=Taller Than The Pines
TTITLE8=Lay Down Your Arms
TTITLE9=Higher Power
TTITLE10=Uncle Larry's Breakdown
TTITLE11=Eastern Winds
TTITLE12=Stay A Little Longer
TTITLE13=Northumberland West
TTITLE14=Lonely Guy
TTITLE15=Snow Squad
TTITLE16=Leave Me Alone
TTITLE17=Ridge Runner Reel
TTITLE18=1,000,002 Songs
TTITLE19=Dying Is Easy
TTITLE20=Tiger Tiger
EXTD=YEAR: 2006
EXTT0=
EXTT1=
EXTT2=
EXTT3=
EXTT4=
EXTT5=
EXTT6=
EXTT7=
EXTT8=
EXTT9=
EXTT10=
EXTT11=
EXTT12=
EXTT13=
EXTT14=
EXTT15=
EXTT16=
EXTT17=
EXTT18=
EXTT19=
EXTT20=
PLAYORDER=
